# xmcd
#
# Track frame offsets:
#	150
#	18924
#	33459
#	51879
#	69388
#	87233
#	105946
#	123064
#	140445
#	161879
#	173892
#	193012
#	205943
#
# Disc length: 3025 seconds
#
# Revision: 1
# Processed by: cddbd v1.5.2PL0 Copyright (c) Steve Scherf et al.
# Submitted via: audiograbber 1.83.01
#
DISCID=aa0bcf0d
DTITLE=The Informants - Stiletto Angel
DYEAR=2007
DGENRE=Blues
TTITLE0=Stuck On You
TTITLE1=Stiletto Angel
TTITLE2=Tears Of Heartache
TTITLE3=Baby Take A Shot
TTITLE4=Monday Morning Blues
TTITLE5=Let's Roll
TTITLE6=Ukelele Johnny
TTITLE7=I'll Never Know
TTITLE8=Backyard Bar-B-Que
TTITLE9=Jump Jack Jump
TTITLE10=You Got Me Hooked
TTITLE11=Ding Dong Daddy
TTITLE12=Work It
EXTD=
EXTT0=
EXTT1=
EXTT2=
EXTT3=
EXTT4=
EXTT5=
EXTT6=
EXTT7=
EXTT8=
EXTT9=
EXTT10=
EXTT11=
EXTT12=
PLAYORDER=
